<svg width="423" height="313" viewBox="0 0 423 313" fill="none" xmlns="http://www.w3.org/2000/svg">
<g clip-path="url(#clip0_5_367)">
<path d="M331.226 146.78C326.259 157.865 321.989 169.165 320.165 181.258C317.917 196.148 317.179 211.079 318.465 226.093C318.772 229.659 318.937 233.257 319.609 236.756C319.908 238.286 321.01 240.305 322.304 240.9C329.145 244.077 332.619 249.942 334.974 256.493C336.019 259.413 337.295 261.556 339.941 263.161C341.019 263.814 341.533 265.377 341.98 266.842C338.274 266.387 334.302 266.676 333.572 261.134C330.604 264.798 328.075 267.934 325.198 271.482C324.966 264.815 328.067 261.076 334.8 259.893C331.856 253.656 328.009 248.602 321.848 245.615C319.883 244.664 317.685 244.019 315.529 243.696C314.037 243.473 311.383 243.605 311.068 244.35C310.156 246.476 310.239 248.85 312.876 250.388C316.45 252.465 320.057 254.574 323.233 257.188C324.46 258.197 325.115 260.646 325.007 262.366C324.75 266.238 323.639 270.043 323.266 273.923C322.718 279.672 322.428 285.454 322.213 291.228C322.105 294.098 320.786 295.041 318.058 294.992C311.433 294.884 304.8 294.892 298.175 294.942C294.493 294.967 292.843 293.296 293.15 289.606C293.415 286.455 293.374 283.262 293.805 280.135C294.277 276.677 292.967 275.445 289.559 275.486C272.304 275.701 255.049 275.817 237.793 275.949C204.667 276.206 171.533 276.462 138.407 276.71C134.684 276.735 130.945 276.859 127.23 276.644C124.112 276.462 122.96 277.827 122.993 280.73C123.034 284.825 123.001 288.92 123.001 293.544C112.869 293.544 103.524 293.635 94.1953 293.387C93.3744 293.362 92.0062 291.145 91.9233 289.871C91.459 282.592 91.3014 275.296 91.0444 268C90.9034 263.979 87.8189 261.763 83.7476 262.317C78.6481 263.012 73.4989 263.351 68.3745 263.847L68.275 262.664C74.1705 262.317 80.066 261.969 86.2185 261.605C86.8404 257.296 87.396 253.399 87.993 249.247H92.9847C91.5502 251.985 90.381 254.227 88.8471 257.163C90.265 256.874 91.1854 256.692 92.0809 256.501C91.1854 256.733 90.323 256.973 89.4524 257.213C89.8918 257.742 90.3313 258.272 90.7708 258.801C92.255 258.801 93.7392 258.834 95.2152 258.801C103.192 258.619 111.169 258.305 119.145 258.321C120.87 258.321 122.587 259.504 124.303 260.149C124.253 260.588 124.195 261.026 124.145 261.465C124.701 261.117 125.248 260.745 125.82 260.431C131.442 257.345 137.072 254.26 142.703 251.183C139.817 252.936 138.731 255.443 138.963 258.834C139.27 263.301 139.394 267.801 139.27 272.276C139.187 275.23 140.397 276.272 143.167 276.164C145.928 276.065 148.689 276.139 151.45 276.048C153.963 275.966 156.865 276.23 155.771 272.756C156.79 273.699 158.084 275.726 158.996 275.569C163.573 274.791 168.814 277.562 172.462 274.146C174.178 274.593 175.804 275.378 177.421 275.37C197.993 275.213 218.565 274.94 239.137 274.692C249.908 274.56 260.679 274.361 271.45 274.328C274.344 274.32 275.936 273.426 275.745 270.316C275.687 269.356 275.72 268.372 275.894 267.429C276.467 264.294 274.8 263.177 272.03 263.07C269.269 262.97 266.5 263.07 263.755 262.813C262.901 262.739 262.13 261.829 261.317 261.299C262.105 260.77 262.835 259.893 263.689 259.761C267.652 259.149 271.641 258.735 276.549 258.139C275.09 257.221 274.435 256.808 273.987 256.526C276.989 255.41 276.773 252.961 275.032 251.141C273.191 249.214 271.848 247.179 273.299 245.078C274.17 243.82 276.699 243.705 278.481 243.076C278.564 243.332 278.639 243.589 278.722 243.845C277.694 244.217 276.666 244.581 275.057 245.16C278.987 248.18 282.777 250.529 285.861 253.59C291.433 259.107 297.884 260.613 305.422 259.628C310.654 258.942 315.969 258.851 321.251 258.495C321.375 258.09 321.5 257.684 321.624 257.271C314.559 252.837 307.519 248.37 300.405 244.027C299.692 243.589 298.506 243.911 297.544 243.911C292.437 243.911 287.329 243.911 282.221 243.911C290.546 243.878 299.186 240.875 307.677 246.815C307.677 242.538 307.246 239.08 307.801 235.78C308.315 232.736 305.695 229.749 307.909 226.829C307.022 226.408 306.168 225.779 305.231 225.597C303.249 225.216 301.226 225.076 299.211 224.836C301.524 224.745 303.863 224.77 306.16 224.48C306.823 224.397 307.37 223.405 307.976 222.826C307.387 222.363 306.831 221.544 306.218 221.51C303.689 221.362 301.135 221.444 297.901 221.444C298.573 223.074 298.962 224 299.344 224.935C297.105 222.156 294.211 221.097 290.662 221.378C290.148 221.419 289.534 220.278 288.871 219.583C295.546 222.305 301.682 219.575 308.564 220.038V162.017C302.918 162.017 297.022 161.918 291.135 162.108C290.049 162.142 288.996 163.382 287.926 164.069C288.73 164.971 289.534 165.872 290.214 166.642C289.17 166.36 286.558 166.129 286.475 165.55C285.894 161.215 282.345 162.53 280.065 162.175C276.367 161.587 272.544 161.728 269.037 161.571C271.765 160.338 275.886 163.424 277.81 159.528C278.913 160.107 280.007 161.141 281.143 161.19C286.525 161.414 291.981 161.877 297.271 161.207C299.957 160.868 302.196 161.265 304.634 161.786C306.591 162.199 308.456 162.439 309.045 159.635C311.085 149.982 310.09 140.535 307.279 131.196C307.238 131.063 306.806 131.047 306.168 130.865C305.364 133.801 304.551 136.763 303.722 139.823C303.017 136.432 303.374 132.23 301.533 130.765C299.07 128.813 295.728 130.633 294.294 135.555C292.901 128.507 288.34 130.459 284.858 130.418C281.259 130.368 276.931 127.796 274.933 131.551C272.039 131.32 269.642 130.848 267.296 130.989C259.817 131.452 259.808 131.535 258.274 138.831C257.594 142.057 256.989 145.308 256.351 148.542C255.903 148.476 255.463 148.418 255.016 148.352C255.239 143.877 255.546 139.402 255.621 134.926C255.637 133.76 254.908 132.585 254.518 131.411C253.88 132.436 252.893 133.388 252.661 134.496C251.989 137.623 251.632 140.816 251.143 143.976C250.563 140.419 250.662 136.986 250.488 133.561C250.447 132.776 249.468 132.031 248.921 131.27C248.39 131.932 247.487 132.536 247.395 133.255C246.964 136.39 246.732 139.55 246.5 142.71C246.309 145.316 246.218 147.93 246.077 150.536C245.795 150.519 245.505 150.503 245.223 150.486C244.866 144.439 244.51 138.401 244.153 132.354C243.871 132.362 243.598 132.37 243.316 132.379C242.594 138.037 241.865 143.695 241.143 149.353C240.787 149.328 240.438 149.295 240.082 149.27C240.704 138.07 240.157 127.101 234.104 116.637C232.387 120.723 233.913 127.44 235.936 129.078C232.238 136.688 234.916 145.093 232.213 153.323C232.006 145.242 232.661 137.879 229.385 130.972C224.618 138.252 227.362 147.136 223.929 155.309C222.843 142.454 224.394 130.153 220.77 118.457C220.049 131.708 219.327 144.911 218.589 158.444C225.447 158.444 232.288 158.502 239.128 158.419C241.89 158.386 243.498 158.899 243.448 162.274C243.175 180.282 243.067 198.299 243.034 216.307C243.034 217.54 244.045 218.814 244.692 220.013C245.571 221.643 246.566 223.206 247.503 224.803C245.812 225.605 244.128 227.094 242.437 227.111C224.12 227.276 205.803 227.218 187.479 227.218C200.041 226.292 212.603 226.325 225.165 226.275C231.375 226.25 237.594 226.143 243.797 225.829C244.759 225.779 245.654 224.406 246.583 223.636C245.696 222.875 244.916 221.734 243.888 221.436C242.478 221.022 240.878 221.204 239.361 221.188C230.662 221.089 221.973 220.965 213.274 220.931C199.328 220.874 185.381 220.832 171.434 220.94C170.265 220.948 168.382 221.982 168.142 222.892C167.877 223.885 169.129 225.283 169.701 226.449C169.203 226.242 167.487 226.035 167.139 225.241C166.683 224.182 166.882 221.817 167.537 221.486C172.213 219.145 170.447 215.009 170.829 211.419C171.235 207.589 169.709 206.298 165.92 206.488C160.779 206.753 155.621 206.555 150.464 206.555C150.447 206.414 150.431 206.265 150.406 206.124C153.324 205.86 156.243 205.587 159.701 205.272C156.973 201.922 146.931 201.434 142.777 204.114C144.22 204.966 145.397 205.669 146.575 206.364C146.459 206.521 146.351 206.67 146.235 206.827C143.374 205.057 140.514 203.279 138.266 201.889C141.334 201.732 145.406 201.517 149.651 201.302C149.419 199.945 149.27 199.068 149.104 198.051C150.124 197.902 150.928 197.736 151.741 197.679C154.916 197.463 158.855 198.878 159.734 193.774C159.8 193.377 161.359 193.245 162.064 193.038C161.152 194.684 160.298 196.206 159.353 197.91C158.034 198.076 156.517 198.208 155.033 198.456C153.664 198.688 152.321 199.035 150.97 199.333L150.928 200.4C151.683 200.723 152.429 201.293 153.208 201.335C156.517 201.5 159.834 201.666 163.134 201.55C170.43 201.293 170.422 201.219 169.958 193.592C169.933 193.212 170.223 192.823 170.223 192.442C170.24 182.036 170.231 171.638 170.231 160.835C168.515 160.835 166.575 161.066 164.726 160.76C163.175 160.504 161.732 159.61 160.24 159.006C161.417 157.79 162.562 156.541 163.797 155.383C164.427 154.788 165.787 154.432 165.853 153.845C166.409 149.328 166.732 144.787 167.13 140.245C166.591 140.171 166.052 140.088 165.513 140.014C164.875 142.396 164.245 144.787 163.581 147.268C162.976 143.612 162.396 140.096 161.807 136.581C161.492 136.581 161.185 136.589 160.87 136.597C160.19 139.699 159.518 142.81 158.838 145.912C158.731 140.427 158.101 135.373 153.747 131.601C153.001 134.364 152.213 137.309 151.417 140.254C151.019 136.556 149.817 134.157 145.646 134.844C139.361 135.878 144.17 140.634 142.412 144.133C141.674 141.47 141.251 139.368 140.489 137.4C140.157 136.548 139.245 135.72 138.391 135.34C137.91 135.125 136.409 135.82 136.392 136.151C136.268 139.36 135.298 143.174 136.683 145.622C138.101 148.12 141.65 149.783 145.331 147.368C146.641 146.507 148.706 146.78 150.422 146.532L150.547 147.425C149.154 148.087 147.769 148.741 145.845 149.659C149.013 150.519 151.368 151.148 154.576 152.017C151.492 152.397 149.452 152.653 146.202 153.051C149.295 154.664 151.169 155.64 153.051 156.616C148.125 154.647 146.285 154.87 144.585 157.021C144.751 161.091 144.983 163.895 144.933 166.691C144.908 168.04 144.361 169.371 144.046 170.711C145.721 170.496 147.553 170.62 149.038 169.967C150.157 169.479 150.704 167.833 151.741 167.006C152.669 166.269 153.93 165.938 155.049 165.426C155.215 166.658 155.829 168.031 155.472 169.09C154.162 172.986 150.911 174.682 147.18 175.857C145.994 176.229 145.074 177.428 144.029 178.247C144.975 179.199 145.754 180.456 146.882 181.035C150.447 182.88 154.137 184.485 154.552 190.738C152.62 189.622 151.185 189.216 150.414 188.265C146.26 183.144 137.719 183.417 133.922 188.943C132.528 190.97 131.351 192.591 129.137 189.572C128.515 188.72 126.766 188.472 125.497 188.348C123.474 188.149 121.409 188.298 119.361 188.298V188C123.059 187.462 126.749 186.925 130.431 186.387C130.364 185.957 130.298 185.519 130.232 185.088C124.784 185.088 119.336 184.956 113.905 185.246C113.175 185.287 112.023 187.38 111.981 188.563C111.815 192.682 112.114 196.827 112.122 200.954C112.155 215.778 112.131 230.602 112.131 245.318C114.519 244.796 116.616 243.969 118.723 243.944C126.575 243.845 134.436 244.052 142.288 244.027C144.568 244.027 145.447 245.119 144.925 247.063C144.527 248.535 143.465 249.834 142.703 251.216C143.266 249.909 143.822 248.602 144.684 246.592C142.727 247.137 141.658 247.435 140.414 247.783C140.746 246.898 140.97 246.285 141.6 244.614C135.174 244.614 129.17 244.449 123.192 244.689C120.406 244.796 117.529 245.351 114.908 246.294C110.937 247.725 107.164 249.677 103.3 251.406C108.034 249.702 109.071 246.112 108.971 241.463C108.656 227.144 108.623 212.825 108.482 198.506C108.482 197.679 108.358 196.835 108.474 196.024C110.514 181.242 104.527 168.023 100.323 154.465C98.192 147.574 95.9034 140.733 93.1505 133.942V138.434C92.2799 136.134 91.7243 134.67 90.7791 132.18C88.1008 137.003 90.2981 140.965 90.2318 144.778C89.8421 144.828 89.4524 144.878 89.0626 144.919C88.3993 139.071 87.7277 133.231 87.0643 127.382C86.7824 127.399 86.4922 127.415 86.2103 127.44V135.605C85.7874 135.704 85.3645 135.795 84.9333 135.894C84.386 133.975 83.731 132.081 83.3247 130.137C82.8935 128.06 82.7111 125.943 81.5254 123.85V131.386C81.2517 131.411 80.9864 131.435 80.7128 131.469C80.3562 128.797 80.1489 126.092 79.5685 123.461C79.3446 122.435 78.2915 121.592 77.6116 120.673C76.8488 121.476 75.5635 122.196 75.3977 123.105C74.3529 128.83 73.5652 134.604 73.2999 140.402C72.4707 137.987 71.6498 135.572 70.8206 133.164C70.2816 133.239 69.7509 133.313 69.212 133.388C69.0047 136.101 68.7974 138.814 68.5901 141.527C68.3911 141.536 68.2004 141.552 68.0014 141.561C67.479 137.342 66.9566 133.131 66.4342 128.913C66.0694 128.888 65.7045 128.863 65.348 128.838C64.9002 131.411 64.4525 133.992 63.9964 136.564C63.8472 136.581 63.6979 136.597 63.5486 136.614C63.3082 133.065 63.0677 129.516 62.8273 125.968C59.5354 134.099 59.5271 142.413 59.7012 150.974C58.8803 145.895 57.5702 140.849 57.3464 135.745C57.0727 129.45 57.3298 123.081 58.0512 116.819C58.5238 112.683 61.7079 111.318 65.6631 112.749C65.1904 114.354 64.7178 115.967 64.2452 117.588C64.4359 117.662 64.6266 117.737 64.8173 117.82C66.144 115.702 67.4707 113.593 68.7891 111.475C69.013 111.566 69.2451 111.665 69.469 111.756C69.0793 113.179 68.6896 114.602 67.9848 117.191C70.5553 114.453 72.2965 112.592 74.0378 110.739C74.2783 110.912 74.5188 111.094 74.7509 111.268C74.328 112.476 73.9052 113.684 73.4823 114.891C76.2186 111.384 79.3197 109.986 83.8056 111.591C84.8587 111.971 87.7774 111.07 86.3927 107.992C85.4308 105.85 84.8172 103.468 84.4938 101.135C83.9383 97.098 84.4026 92.7965 80.5469 89.893C80.066 89.529 79.867 88.7018 79.668 88.0483C78.3662 83.8213 77.197 79.5446 75.7294 75.3754C75.4392 74.5482 74.071 73.7541 73.0843 73.5804C67.6282 72.6374 66.7078 71.3965 67.7029 65.8708C67.9516 64.4893 68.1009 63.0914 68.2999 61.7016C67.8853 61.5776 67.4707 61.4452 67.0561 61.3211C66.1357 63.8937 64.6929 66.4085 64.4276 69.039C63.9881 73.4067 63.7974 77.6254 58.0677 79.9499C63.2667 83.1181 61.3513 86.4187 59.8007 89.9095C58.8638 92.0189 58.5901 94.4178 58.0346 96.6927C57.3215 99.5989 55.29 101.457 51.9401 102.268C57.0644 107.711 54.7344 112.79 51.5338 117.836C44.4608 116.397 42.9766 110.764 42.3547 105.188C40.5637 89.0823 46.3348 75.7394 58.3331 65.0105C59.6432 63.8358 61.4259 63.1989 62.8273 62.107C63.7311 61.4038 64.3281 60.3119 65.0661 59.3937C64.1208 58.7568 63.2336 57.6814 62.2302 57.5573C59.0959 57.1768 55.9119 56.8873 52.7693 57.0527C45.829 57.4167 45.829 57.5408 41.1358 53.7935C40.7129 54.4801 39.9832 55.117 39.9584 55.7871C39.7594 61.3873 36.567 62.3965 31.6748 61.8423C28.2171 61.4452 24.6682 61.7926 21.1691 61.9746C20.5057 62.0077 19.9004 62.8763 19.2288 63.2733C18.3084 63.8276 17.3963 64.5555 16.3847 64.7706C11.5588 65.7715 6.70808 66.6401 1.85735 67.5169C1.36814 67.6079 0.837458 67.4094 -0.0166016 67.3019C2.41291 60.436 7.66994 56.7384 13.4991 53.8597C29.0546 46.1749 45.1325 46.0177 61.484 51.0223C62.3795 51.2953 63.2916 51.4939 65.1738 51.9819C62.8521 47.1262 58.8389 45.4635 55.3812 43.4037C52.7527 41.832 49.6764 41.4681 49.9998 37.0094C50.1822 34.4699 47.5371 35.2061 46.484 36.5875C43.557 40.4092 40.4393 39.5572 37.0977 37.4395C34.4858 35.7851 31.8572 34.139 28.8141 32.2198C24.718 37.2824 19.6682 31.6491 14.32 31.9469C14.8258 28.241 17.3631 27.4386 19.8755 26.9836C39.0711 23.4928 60.7626 32.0627 68.8637 50.2448C69.0793 50.7328 69.4359 51.1547 70.1572 52.288C76.6498 30.2676 90.1406 16.0396 112.529 11.1756C119.237 9.71972 125.58 11.0846 133.051 13.6986C131.094 14.7326 130.132 15.2538 129.145 15.7584C124.767 18.0084 120.431 20.3659 115.97 22.4339C114.585 23.0792 112.835 22.9964 111.243 23.1453C109.618 23.3025 107.985 23.3273 106.832 23.3935C104.046 30.4413 98.2749 33.0222 93.0427 36.1574C91.716 37.6298 90.5718 39.3339 89.0295 40.5168C85.5303 43.1804 81.7741 45.5049 78.2418 48.1271C77.0892 48.9791 76.3098 50.3275 75.7957 52.1308C76.8322 51.7751 78.1008 51.6841 78.872 51.0223C93.8139 38.275 111.409 37.3899 129.61 39.946C137.296 41.0296 144.734 43.4037 150.729 48.7227C152.147 49.9801 153.018 51.8413 153.739 53.959C147.014 52.7843 139.386 55.8863 134.618 48.4084C133.349 46.4148 131.135 46.2576 130.356 49.0536C129.618 51.7007 128.067 51.6097 125.961 51.254C121.343 50.4681 116.608 50.1869 112.106 48.9874C110.141 48.4663 108.648 46.1914 106.948 44.719C104.925 47.5756 101.791 48.9405 97.5452 48.8137C91.716 48.6317 86.1854 49.5582 80.6381 52.958C86.0361 52.958 90.8454 52.288 95.3976 53.0821C108.2 55.3156 119.751 60.1134 127.736 71.1649C131.467 76.3267 132.064 81.96 131.268 88.6439C123.391 85.5253 117.014 81.7615 116.55 72.108C116.177 72.2651 115.804 72.4223 115.431 72.5877C114.726 74.5234 114.013 76.4508 113.258 78.5106C109.394 76.5583 105.663 74.8708 102.18 72.7863C101.326 72.2734 100.953 70.4949 100.87 69.2623C100.729 67.2853 101.011 65.2835 101.119 63.2899C100.704 63.0914 100.29 62.8928 99.8752 62.6943C98.59 64.2246 97.3047 65.755 95.8205 67.5335C94.1372 66.0528 92.3628 64.4976 90.5386 62.8928C85.3728 69.0307 87.5121 75.2431 89.386 81.2238C92.313 90.5382 95.6298 99.7368 98.988 109.572C101.351 109.275 104.684 108.53 108.034 108.489C113.623 108.406 119.212 108.935 124.8 108.911C134.154 108.869 143.499 108.571 152.852 108.439C165.356 108.265 177.918 107.347 190.339 108.249C199.833 108.935 208.954 107.579 218.25 106.876C221.84 106.603 225.538 107.769 229.178 108.315C230.107 108.456 231.036 108.952 231.939 108.911C237.047 108.662 242.147 108.15 247.254 108.017C251.906 107.901 256.566 108.191 261.226 108.249C273.059 108.398 284.883 108.596 296.715 108.58C299.427 108.58 302.13 107.728 304.858 107.405C306.201 107.248 307.926 106.859 308.879 107.479C312.851 110.102 313.738 108.042 314.369 104.526C315.795 96.5768 317.428 88.6687 318.979 80.744C319.087 80.2063 319.203 79.6687 319.344 79.131C320.985 72.7945 322.636 66.4581 324.319 59.9645C320.894 57.7228 317.81 54.1161 313.573 58.0371C312.146 59.3606 311.466 61.4866 310.455 63.2568C309.891 64.2412 309.46 65.97 308.763 66.0859C303.257 66.9875 299.717 70.437 296.674 75.1769C295.413 74.0602 294.352 73.1171 293.307 72.1907C293.009 72.3644 292.602 72.4885 292.594 72.6374C292.262 79.4536 289.916 84.3093 282.594 86.7248C278.631 88.04 275.538 91.9858 272.088 94.7156C269.004 86.2284 275.596 70.7348 290.239 58.0619C301.334 48.458 313.481 40.5747 329.883 43.503C328.498 38.2006 325.289 35.4294 321.342 33.3118C320.131 32.6583 318.846 32.1371 317.561 31.616C314.087 30.2097 309.908 29.4404 311.682 24.2455C306.226 22.5746 301.234 21.4578 296.649 19.4146C295.015 18.6867 294.369 15.7418 293.05 13.4339C292.976 13.4504 292.063 13.4091 291.475 13.8227C282.163 20.4073 273.1 12.7969 263.548 14.4514C265.712 8.09011 282.826 -0.19854 292.262 -9.68432e-06C303.863 0.248154 314.319 4.18568 322.851 11.9863C331.242 19.6545 337.022 29.1095 338.962 40.7153C343.722 38.0765 347.984 34.9993 352.735 33.2125C372.063 25.933 391.657 25.172 410.919 33.1794C415.363 35.0324 418.904 39.218 422.577 42.6427C423.332 43.3458 422.818 45.4056 422.892 46.8367C421.615 46.8367 420.322 46.9938 419.07 46.8201C411.723 45.8192 404.385 44.7438 397.038 43.6933C395.421 43.4616 393.813 43.1969 391.897 42.8991C390.911 46.4148 388.257 46.514 385.189 45.8523C383.44 45.4718 381.59 45.5462 379.866 45.0995C375.645 43.9911 371.466 42.6923 366.516 41.2447C364.766 44.9423 359.775 43.9166 355.206 45.2236C373.498 45.48 386.541 53.7439 394.36 69.7173C397.652 76.4343 397.668 83.7303 395.886 92.2009C393.581 89.3884 392.204 86.9564 390.164 85.4095C387.395 83.3084 388.1 81.0997 388.746 78.5023C389.385 75.9462 388.663 74.1346 385.471 74.2422C384.617 74.2752 383.431 74.0602 382.934 73.4977C379.567 69.676 375.09 66.1934 373.415 61.6934C371.516 56.5812 370.131 54.3395 363.995 54.2402C359.559 54.1658 355.231 50.0959 350.761 48.003C349.443 47.3826 347.818 47.4323 346.11 47.6391C365.571 54.6373 377.105 67.6906 378.464 88.5694C379.103 98.4546 378.058 108.034 370.214 116.736C369.849 114.618 369.783 113.336 369.393 112.17C367.95 107.794 366.292 103.484 364.965 99.075C364.518 97.5695 364.319 95.6173 364.907 94.2524C366.01 91.6963 366.474 90.257 362.851 89.8268C361.516 89.6696 359.941 88.1393 359.219 86.824C356.765 82.3902 354.344 77.8819 352.569 73.1585C351.947 71.4958 353.249 69.1134 353.763 66.6401C347.304 67.1612 345.886 62.8432 344.841 57.152C343.755 51.2622 339.07 48.913 335.894 51.9157C334.451 53.2724 333.324 56.0518 333.689 57.8551C333.929 59.0463 337.005 59.8818 338.946 60.4443C339.941 60.7338 341.209 60.0886 342.345 59.8652C342.486 60.1796 342.635 60.4939 342.776 60.8083C340.347 62.1649 337.909 63.5298 335.181 65.0601C334.435 64.1502 333.465 62.4709 332.022 61.4204C331.367 60.9406 329.236 61.2963 328.771 61.9581C327.743 63.4388 327.337 65.3579 326.558 67.4094C330.065 68.3193 333.009 69.0886 336.077 69.8828C336.068 69.7504 336.159 70.2385 336.093 70.2633C331.698 71.6695 333.473 75.3423 332.951 78.2707C332.594 80.2808 331.367 82.1337 330.546 84.0611C330.082 85.1613 329.36 86.2367 329.244 87.3783C328.987 89.8351 329.161 92.3415 328.954 94.8066C328.713 97.6439 329.932 100.804 326.898 103.12C326.234 103.625 326.566 105.411 326.433 106.644C335.927 108.853 345.156 110.995 354.393 113.138L354.526 114.213C353.382 114.726 352.279 115.33 351.101 115.743C348.365 116.695 345.654 117.82 342.843 118.399C338.025 119.391 337.81 122.014 338.871 126.183C340.032 130.782 340.256 135.613 340.38 140.394C339.269 134.397 338.15 128.391 337.038 122.394C336.806 122.444 336.566 122.493 336.334 122.543C336.019 128.689 335.712 134.844 335.405 140.99C335.281 143.529 334.617 145.697 331.732 146.35C332.329 143.455 333.548 140.527 333.373 137.673C333.174 134.265 331.79 130.931 330.712 126.753C330.09 128.019 329.103 129.194 328.995 130.435C328.747 133.429 328.946 136.465 328.896 139.476C328.879 140.27 328.655 141.751 328.49 141.759C324.393 141.9 326.574 145.374 325.645 147.136C324.974 148.41 325.413 150.627 324.493 151.363C320.405 154.664 323.025 158.593 322.213 162.795C325.496 156.963 328.357 151.876 331.226 146.789V146.78ZM202.13 141.072C201.541 134.049 200.961 127.026 200.372 120.003C199.842 120.053 199.311 120.103 198.78 120.152C199.203 128.549 199.618 136.936 200.057 145.589C200.853 143.885 201.541 142.413 202.23 140.94C200.679 145.846 199.137 150.751 197.412 156.219C194.245 154.167 188.896 157.799 186.857 153.266C183.797 152.637 181.343 151.826 178.847 151.71C176.989 151.628 175.099 152.43 173.225 152.844C174.112 153.795 175.008 154.755 175.787 155.59C172.96 157.195 168.565 154.324 165.646 159.337C170.654 159.337 174.726 159.478 178.78 159.263C180.248 159.18 181.666 158.237 183.109 157.691C182.28 156.732 181.45 155.78 180.613 154.812H184.352C184.535 156.177 184.701 157.468 184.875 158.733H208.258C209.104 143.587 209.949 128.946 204.435 114.833C205.248 124.793 208.308 134.728 204.029 144.241C204.129 142.727 204.261 140.816 204.444 138.012C203.274 139.584 202.719 140.336 202.155 141.097L202.13 141.072ZM224.427 187.156L223.399 186.238C224.477 185.428 225.596 184.667 226.616 183.798C231.21 179.852 235.87 175.964 240.331 171.87C243.573 168.9 241.649 165.111 241.069 161.778C240.944 161.074 237.702 160.115 236.384 160.595C234.485 161.29 233.026 163.192 231.384 164.59C220.488 173.88 209.585 183.153 198.706 192.467C196.898 194.014 195.207 195.71 193.457 197.339C193.117 196.959 192.777 196.587 192.437 196.206C205.745 184.642 219.062 173.077 233.026 160.942C228.913 160.942 225.72 161.273 222.619 160.876C216.193 160.04 211.724 163.035 207.337 167.212C197.47 176.601 187.238 185.618 177.321 194.949C175.447 196.719 173.349 199.151 173.042 201.5C172.387 206.513 172.727 211.675 172.935 216.762C172.976 217.747 174.253 219.484 174.991 219.5C182.943 219.699 190.895 219.624 199.062 219.624C199.062 217.441 199.062 216.365 199.062 216.448C200.828 217.085 202.694 218.226 204.626 218.359C208.432 218.607 212.304 217.978 216.102 218.284C220.372 218.632 219.037 216.804 217.719 214.347C218.946 214.719 220.497 215.455 220.414 215.786C219.601 219.037 221.798 218.896 223.764 218.872C228.556 218.806 233.341 218.566 238.133 218.533C240.737 218.516 241.317 217.217 241.301 214.876C241.259 207.572 241.4 200.268 241.45 192.963C241.475 189.299 241.45 185.626 241.45 181.085C238.059 183.848 235.521 185.916 232.984 187.975C234.767 185.378 236.865 183.178 239.286 181.407C242.279 179.223 242.279 176.667 241.094 172.995C235.264 177.941 229.842 182.541 224.419 187.14L224.427 187.156ZM138.996 171.696C139.436 171.274 139.867 170.852 140.306 170.43C140.174 169.802 140.256 168.925 139.867 168.569C136.65 165.608 136.293 162.894 139.469 159.412C141.318 157.385 139.386 155.466 137.222 155.64C134.577 155.855 132.006 157.079 128.797 158.055C131.6 156.02 134.195 154.134 137.421 151.793H129.693C129.693 151.537 129.693 151.272 129.693 151.016C131.575 150.403 133.457 149.783 135.655 149.063C134.469 144.919 133.441 140.973 132.164 137.11C131.89 136.283 130.737 135.737 129.983 135.067C129.411 135.861 128.482 136.597 128.349 137.458C127.993 139.79 127.976 142.173 127.786 145.167C127.106 141.9 126.55 139.236 125.995 136.572C125.688 136.622 125.381 136.672 125.082 136.721V145.879C124.883 145.903 124.676 145.92 124.477 145.945L122.877 138.756C122.487 138.781 122.089 138.806 121.699 138.831C121.185 142.884 120.663 146.937 120.149 150.999C118.673 146.573 118.291 142.024 117.462 137.557C117.255 136.44 115.63 135.588 114.651 134.612C113.689 135.605 111.89 136.597 111.882 137.598C111.708 153.084 111.757 168.577 111.757 184.691C117.147 184.294 121.882 183.947 126.708 183.599C126.138 182.039 122.639 181.06 116.21 180.663C119.029 180.373 121.873 180.034 124.701 180.166C125.796 180.216 127.529 181.126 127.786 181.986C128.747 185.279 130.688 184.286 132.611 183.417C134.112 182.739 135.638 181.986 136.89 180.952C137.885 180.125 138.971 178.868 139.071 177.718C139.129 177.007 137.528 175.749 136.459 175.435C132.578 174.293 130.29 171.836 129.718 167.924C129.577 166.981 130.356 165.897 130.713 164.88C131.65 165.409 132.711 165.806 133.507 166.501C135.406 168.155 137.189 169.95 139.021 171.688L138.996 171.696ZM321.715 266.726C321.259 266.502 320.803 266.271 320.355 266.048C310.836 274.005 301.997 282.6 294.493 293.561H320.082C320.645 284.288 321.184 275.511 321.715 266.726ZM121.542 264.252C121.185 264.029 120.837 263.814 120.48 263.591C112.272 272.963 104.054 282.335 95.8454 291.699C103.839 292.667 111.127 292.791 118.399 292.543C119.477 292.502 121.384 290.748 121.409 289.739C121.65 281.243 121.55 272.748 121.55 264.244L121.542 264.252ZM171.964 129.409L170.895 129.384C169.693 137.855 168.49 146.317 167.296 154.788C167.62 155.069 167.943 155.35 168.266 155.623C169.576 154.606 170.887 153.58 172.205 152.579C173.134 151.876 173.996 150.842 175.041 150.585C181.26 149.039 181.293 149.096 180.969 142.859C180.853 140.659 180.953 138.392 180.43 136.283C180.115 135.009 179.013 133.346 177.901 132.982C175.729 132.263 174.402 133.561 173.979 135.936C173.49 138.69 172.661 141.379 171.964 144.158V129.409ZM208.988 158.568C212.404 158.502 216.168 160.578 216.334 155.813C216.649 146.755 216.691 137.648 216.135 128.606C215.895 124.644 213.921 120.781 212.735 116.877C212.304 116.992 211.873 117.108 211.434 117.224C214.054 131.047 212.18 144.663 208.988 158.568ZM289.957 116.918C290.19 116.298 290.43 115.685 290.662 115.065C289.045 114.321 287.495 113.295 285.803 112.914C283.821 112.459 281.707 112.633 279.659 112.418C274.8 111.897 274.319 112.385 275.206 117.017C275.405 118.076 275.563 119.201 275.413 120.252C275.007 123.155 276.475 123.842 279.004 123.726C282.702 123.56 286.417 123.685 290.098 123.337C290.961 123.254 292.453 121.625 292.312 121.013C292.03 119.805 290.903 117.977 289.974 117.886C287.279 117.621 284.518 118.109 281.773 118.258C280.621 118.324 279.46 118.266 278.299 118.266C278.316 117.82 278.324 117.365 278.34 116.918H289.957ZM137.943 259.198C137.512 258.933 137.072 258.669 136.641 258.412C132.255 264.021 127.877 269.629 123.49 275.238C123.756 275.585 124.013 275.924 124.278 276.272C128.723 275.924 133.167 275.577 137.951 275.196V259.198H137.943ZM273.672 129.649C273.349 126.53 270.845 124.437 272.503 121.385C273.208 120.086 271.939 117.613 271.301 115.76C271.044 115.007 270.115 114.114 269.385 114.014C268.656 113.907 267.379 114.494 267.055 115.139C264.775 119.714 262.677 124.371 260.223 129.649H273.672ZM277.752 272.591C277.86 273.004 277.967 273.418 278.083 273.823C281.889 273.823 285.712 273.997 289.501 273.741C291.002 273.641 293.68 272.632 293.697 271.979C293.763 269.555 293.183 267.024 292.296 264.741C292.08 264.178 289.36 263.822 288.49 264.41C284.767 266.924 281.309 269.828 277.76 272.591H277.752ZM324.103 261.076C323.896 260.828 323.68 260.588 323.473 260.34C314.31 260.34 305.14 260.298 295.977 260.431C295.289 260.439 294.626 261.721 293.954 262.408C294.7 262.979 295.463 264.07 296.201 264.054C304.584 263.831 312.967 263.5 321.334 263.003C322.296 262.945 323.183 261.746 324.111 261.076H324.103ZM87.993 259.819C90.9946 263.127 120.116 262.457 121.965 259.819H87.993ZM99.0543 142.652C100.373 147.161 101.136 150.197 102.197 153.133C102.487 153.919 103.698 154.903 104.452 154.879C105.688 154.837 108.001 153.886 107.96 153.58C107.495 150.164 107.081 146.615 105.688 143.529C105.257 142.586 101.882 142.967 99.0626 142.652H99.0543ZM103.416 128.433C103.034 128.358 102.661 128.284 102.28 128.209C102.031 124.23 101.791 120.243 101.542 116.264C101.194 116.264 100.854 116.273 100.505 116.281C100.149 118.217 99.8752 120.169 99.4192 122.088C97.993 128.102 99.585 130.732 105.787 132.445C106.417 126.348 107.056 120.26 107.686 114.163L106.534 113.882C105.497 118.738 104.452 123.594 103.416 128.441V128.433ZM109.709 132.561C117.694 133.305 117.869 133.14 117.57 125.976C117.545 125.298 117.86 124.545 117.645 123.966C117.313 123.097 116.733 121.757 116.119 121.683C115.124 121.559 113.366 122.005 113.076 122.7C111.766 125.786 110.87 129.045 109.709 132.569V132.561ZM280.646 124.636C280.646 124.636 280.646 124.578 280.646 124.545C280.231 124.545 279.816 124.503 279.41 124.545C277.727 124.743 275.256 124.321 275.853 127.068C276.052 127.986 278.142 128.962 279.443 129.086C282.992 129.425 286.591 129.467 290.156 129.301C291.185 129.252 292.155 128.102 293.158 127.448C292.279 126.696 291.466 125.413 290.496 125.289C287.238 124.851 283.929 124.818 280.646 124.636ZM196.89 150.619C199.062 143.993 197.512 138.219 196.119 132.436C195.671 132.428 195.231 132.42 194.784 132.412C194.129 138.227 193.474 144.042 192.785 150.13C194.328 150.312 195.497 150.453 196.89 150.619ZM311.433 241.157C313.788 240.636 316.01 240.148 318.498 239.593C318.092 235.987 317.81 232.595 317.262 229.245C317.155 228.575 315.977 227.508 315.446 227.59C314.559 227.731 313.357 228.484 313.058 229.27C311.914 232.339 311.806 235.275 316.002 236.648C313.738 237.749 309.899 236.483 311.433 241.157ZM323.324 96.9243C326.682 95.7248 327.345 93.2101 326.864 90.2239C326.674 89.0327 325.994 87.9159 325.546 86.7661C324.211 87.5602 322.097 88.0814 321.699 89.2064C320.604 92.3084 320.223 95.6669 319.435 99.5383C322.594 99.0171 324.858 98.6531 327.113 98.2809C327.113 98.0493 327.13 97.8177 327.138 97.586C325.869 97.3627 324.592 97.1394 323.324 96.916V96.9243ZM144.941 121.302C143.971 125.074 142.984 128.011 142.603 131.03C142.504 131.833 144.237 133.57 145.215 133.636C146.542 133.727 149.154 132.552 149.129 132.039C148.921 128.491 148.731 124.743 144.941 121.294V121.302ZM332.014 71.7936C326.392 70.6107 324.228 73.4232 325.106 79.8258C326.906 80.2229 328.705 80.6117 330.952 81.108C331.325 77.8653 331.657 74.937 332.014 71.7936ZM322.403 139.443C317.81 138.723 317.42 141.544 316.84 144.307C315.886 148.84 319.053 149.13 322.403 149.609V139.443ZM88.532 104.824C90.3479 102.797 92.6033 101.242 92.3711 100.349C91.6248 97.5281 89.9416 94.9638 88.6232 92.2919C87.7359 92.8875 86.0112 93.6154 86.0859 94.0538C86.6 97.2552 87.4706 100.399 88.532 104.816V104.824ZM292.478 263.169C291.707 258.967 277.428 247.485 273.365 248.023C279.518 252.895 285.662 257.775 292.478 263.169ZM245.339 114.271C246.035 118.804 246.682 123.354 247.47 127.87C247.578 128.499 248.332 129.177 248.963 129.475C249.244 129.607 250.19 128.962 250.422 128.482C252.147 124.851 249.004 116.19 245.339 114.271ZM313.995 177.9C318.208 177.668 320.123 175.964 319.31 173.59C318.713 171.836 318.183 170.041 317.445 168.346C317.113 167.585 316.342 167.014 315.77 166.36C315.173 166.989 314.111 167.585 314.07 168.238C313.896 171.448 313.987 174.666 313.987 177.9H313.995ZM97.2799 133.388C96.5419 136.457 96.7658 139.327 99.9415 140.369C101.268 140.8 103.457 140.154 104.535 139.195C105.182 138.616 104.767 135.406 104.278 135.257C102.553 134.753 100.588 135.059 98.1671 135.059C98.2085 135.133 97.7442 134.256 97.2799 133.388ZM82.6945 89.5538C84.668 88.0318 87.0477 87.0805 87.2384 85.8066C87.4623 84.2928 86.1273 82.1834 84.867 80.926C84.071 80.1319 82.1721 80.438 80.7708 80.256C80.7211 81.3644 80.4308 82.5225 80.663 83.5731C81.0361 85.2606 81.7575 86.8654 82.6945 89.5538ZM107.197 170.86C107.587 170.786 107.968 170.703 108.358 170.629C108.573 167.783 108.764 164.929 109.005 162.092C109.328 158.328 107.454 157.625 103.897 158.609C105.016 162.787 106.102 166.824 107.189 170.86H107.197ZM313.987 158.576C314.252 158.791 315.214 160.28 316.259 160.347C319.783 160.553 320.314 157.766 320.339 155.119C320.339 154.366 319.103 152.951 318.456 152.96C315.811 153.009 313.564 153.886 313.979 158.576H313.987ZM310.712 219.062C312.412 221.221 313.639 222.784 314.866 224.348C315.505 222.793 316.665 221.229 316.649 219.682C316.632 218.011 317.503 214.951 314.194 215.232C313.166 215.315 312.296 217.242 310.712 219.062ZM327.279 57.0031C328.755 54.8689 330.529 53.3799 330.272 52.4452C329.849 50.9148 328.1 49.7567 326.914 48.4332C325.538 49.7981 324.153 51.163 322.776 52.5279C323.995 53.7356 325.214 54.9516 327.279 56.9948V57.0031ZM181.865 149.642C182.537 149.733 183.208 149.824 183.872 149.915C186.027 144.241 186.193 138.359 184.402 132.254C183.556 138.045 182.702 143.844 181.857 149.634L181.865 149.642ZM194.129 131.08C194.51 130.981 194.9 130.873 195.281 130.774C196.085 122.402 194.576 117.249 190.621 116.653C191.823 121.608 192.976 126.34 194.12 131.072L194.129 131.08ZM256.765 117.241C252.296 120.715 252.992 124.843 253.656 129.028C256.707 128.201 257.901 124.007 256.765 117.241ZM184.444 115.156C182.926 115.859 181.964 116.314 180.77 116.868C181.226 120.243 181.707 123.833 182.197 127.424C182.445 127.399 182.686 127.382 182.935 127.357V120.988C183.034 121.004 183.134 121.021 183.241 121.037C183.656 123.486 184.071 125.943 184.485 128.391C184.8 128.333 185.115 128.267 185.43 128.209C185.107 123.891 184.775 119.565 184.444 115.156ZM75.8455 64.5224C72.9184 63.6125 70.406 63.5546 69.7924 66.425C69.469 67.9554 70.4723 70.8423 71.6747 71.4048C74.0627 72.5133 74.212 70.1226 74.4856 68.3111C74.6597 67.1612 75.265 66.0693 75.8455 64.5224ZM302.619 124.09L301.325 123.18C299.493 124.206 297.578 125.124 295.911 126.365C295.621 126.58 296.251 128.97 296.699 129.053C298.49 129.384 300.77 129.822 302.088 128.987C302.951 128.441 302.495 125.794 302.619 124.082V124.09ZM77.2385 66.2099C77.7609 68.6668 77.6862 70.6355 78.5983 71.8763C79.2534 72.7614 81.2517 72.9765 82.6116 72.9021C83.3993 72.8607 84.6016 71.7026 84.7177 70.9168C84.8089 70.2798 83.6729 69.2541 82.8603 68.7578C81.5419 67.9554 80.0411 67.4508 77.2302 66.2099H77.2385ZM165.29 205.818C165.389 206.025 165.489 206.24 165.596 206.447C167.263 205.645 170.422 204.644 170.348 204.081C169.867 200.623 166.989 202.691 165.082 202.369C164.817 202.327 164.502 202.311 164.261 202.41C162.943 202.989 161.641 203.601 160.339 204.205C161.716 204.743 163.084 205.289 164.469 205.793C164.709 205.884 165.016 205.81 165.29 205.81V205.818ZM133.573 128.64C135.356 123.213 136.998 118.25 138.971 112.244C134.245 115.727 132.744 120.938 133.573 128.64ZM87.8023 63.8358C85.2152 62.2641 83.8222 60.9985 82.2302 60.6345C81.5254 60.4774 80.406 62.1401 79.4773 62.9755C80.7542 64.2743 81.857 65.8791 83.391 66.7063C83.93 66.9958 85.4972 65.391 87.8023 63.8358ZM335.314 114.8C336.914 119.482 342.196 119.424 346.466 114.8H335.314ZM140.439 120.748C140.057 120.673 139.684 120.591 139.303 120.516C138.482 124.007 137.57 127.481 136.923 130.997C136.774 131.791 137.562 132.751 137.918 133.628C138.598 132.842 139.776 132.114 139.867 131.27C140.24 127.779 140.273 124.264 140.439 120.748ZM164.145 132.991C164.535 132.958 164.933 132.924 165.323 132.883C164.867 127.043 164.419 121.203 163.963 115.363C163.341 115.421 162.719 115.479 162.105 115.528C162.785 121.344 163.465 127.167 164.145 132.982V132.991ZM167.545 133.628C168.018 133.628 168.49 133.619 168.963 133.611C168.764 127.945 169.552 122.212 168.664 116.587C168.291 116.612 167.918 116.637 167.545 116.67V133.628ZM318.116 137.077C322.536 135.141 322.602 132.296 322.304 129.409C322.246 128.805 321.4 127.887 320.853 127.837C320.297 127.787 319.236 128.549 319.128 129.094C318.68 131.444 318.498 133.851 318.125 137.077H318.116ZM312.718 203.949C312.611 206.215 312.403 208.101 312.503 209.971C312.536 210.566 313.266 211.336 313.871 211.625C314.319 211.84 315.281 211.625 315.67 211.253C317.362 209.648 315.704 204.801 312.71 203.949H312.718ZM298.117 124.412C299.883 122.452 301.632 121.145 301.425 120.607C300.936 119.366 299.634 118.184 298.365 117.629C297.876 117.414 295.861 118.945 295.869 119.673C295.886 120.905 296.947 122.121 298.117 124.412ZM312.379 191.367C313.05 191.532 313.722 191.69 314.385 191.855C315.032 189.712 315.803 187.595 316.243 185.411C316.375 184.749 315.579 183.897 315.206 183.136C314.369 183.674 312.934 184.104 312.801 184.782C312.395 186.925 312.478 189.167 312.37 191.367H312.379ZM262.503 260.232C266.707 262.904 274.078 262.623 276.143 260.232H262.503ZM178.631 124.189C178.192 124.164 177.752 124.139 177.313 124.115C176.724 125.901 175.903 127.655 175.663 129.483C175.563 130.261 176.691 131.196 177.263 132.056C178.084 131.254 179.568 130.476 179.601 129.64C179.668 127.837 178.996 126.009 178.631 124.189ZM316.475 193.89C315.72 193.89 314.858 193.708 314.742 193.923C313.954 195.404 313.034 196.918 312.785 198.522C312.694 199.151 314.244 200.02 315.048 200.781C315.604 199.416 316.292 198.084 316.649 196.669C316.864 195.834 316.549 194.866 316.466 193.89H316.475ZM111.534 113.932C110.92 113.783 110.315 113.642 109.701 113.493L107.296 126.117C107.728 126.208 108.159 126.29 108.598 126.381L111.534 113.932ZM218.183 134.422C218.54 134.397 218.905 134.372 219.261 134.347L218.449 121.128C218.026 121.153 217.611 121.186 217.188 121.211C217.52 125.612 217.852 130.021 218.191 134.422H218.183ZM189.402 133.032L190.057 132.966V122.27C189.593 122.295 189.137 122.328 188.673 122.353C188.913 125.91 189.162 129.467 189.402 133.032Z" fill="#415A16"/>
<path d="M173.217 102.409C173.449 95.2037 175.978 88.9334 181.127 84.086C192.329 73.5225 205.397 71.5454 219.394 77.551C227.793 81.1494 233.291 87.8663 235.828 96.6596C237.271 101.648 235.928 102.5 230.837 102.409C219.842 102.21 208.83 102.541 197.827 102.615C195.347 102.632 192.868 102.433 190.397 102.417C184.833 102.384 179.261 102.409 173.225 102.409H173.217Z" fill="#415A16"/>
<path d="M318.241 39.2594C310.065 40.2603 301.889 41.253 293.714 42.2539C293.672 41.89 293.631 41.5343 293.589 41.1703C293.349 41.2944 292.942 41.3854 292.901 41.5591C291.773 46.5885 288.606 47.9865 283.606 47.9451C280.331 47.9203 276.815 49.2604 273.805 50.7742C270.919 52.2218 269.012 52.7264 268.017 49.1363C267.47 49.2935 267.105 49.2852 266.972 49.4507C263.747 53.686 260.488 56.7467 254.128 56.2338C249.825 55.8864 245.273 58.5913 240.182 60.1217C240.803 56.0766 242.843 53.1483 245.339 50.5674C254.543 41.0545 266.185 36.2318 278.979 34.2052C290.952 32.3109 302.934 32.8816 314.675 36.1987C316.06 36.5875 317.296 37.5306 318.597 38.2089L318.224 39.2512L318.241 39.2594Z" fill="#415A16"/>
<path d="M61.8406 58.9966C58.5156 61.9415 55.9368 64.1005 53.5073 66.4167C50.232 69.527 47.1723 72.8772 43.7893 75.8635C42.7611 76.7734 40.9452 77.187 39.5024 77.1705C36.3432 77.1291 34.8673 78.2045 36.1774 81.3313C37.1724 83.7054 36.3349 85.1944 34.5936 86.6834C32.5041 88.4702 30.6218 90.5051 28.5074 92.2505C27.7611 92.8626 26.393 93.4582 25.6301 93.1853C22.3549 91.9775 21.7993 93.4913 22.4875 96.1136C23.2255 98.9261 22.189 100.837 20.0497 102.549C17.2139 104.824 14.5108 107.273 11.7496 109.647C11.2853 109.457 10.8209 109.266 10.3566 109.068C10.6634 106.644 10.6634 104.138 11.335 101.821C15.5721 87.1053 25.1492 76.4756 37.5123 67.9471C44.5024 63.1244 51.7909 59.2862 61.8406 59.0049V58.9966Z" fill="#415A16"/>
<path d="M395.861 5.51749C391.018 8.29692 387.179 10.671 383.166 12.6894C381.872 13.3346 380.081 13.2354 378.556 13.103C377.279 12.9955 376.052 12.342 374.061 11.6885C375.579 16.3126 372.95 17.2473 370.007 18.1573C366.176 19.3485 362.411 20.7713 358.365 21.2676C352.627 25.9579 346.889 30.6482 340.82 35.6114C340.712 29.945 342.959 25.3871 346.491 21.7308C358.033 9.76108 372.138 3.37501 388.97 3.7638C391.143 3.81343 393.299 4.83918 395.852 5.51749H395.861Z" fill="#415A16"/>
<path d="M44.7593 295.943C48.1507 295.943 51.5586 295.819 54.9417 295.968C60.7128 296.216 66.4674 296.803 72.2385 296.952C81.6995 297.209 91.1688 297.399 100.638 297.316C111.517 297.217 122.388 296.72 133.266 296.547C138.358 296.464 143.449 296.82 148.54 296.869C167.288 297.06 186.027 297.2 204.775 297.39C206.79 297.407 208.805 297.63 210.82 297.754C210.803 298.292 210.779 298.83 210.762 299.376C182.976 299.004 155.165 297.812 127.396 298.499C99.7674 299.186 72.2302 299.516 44.6847 298.036C44.7096 297.333 44.7262 296.638 44.751 295.935L44.7593 295.943Z" fill="#415A16"/>
<path d="M334.609 239.966C334.186 209.805 333.755 179.645 333.332 149.485C333.556 149.46 333.78 149.436 334.004 149.411C334.161 151.231 334.418 153.042 334.46 154.862C334.924 177.164 335.189 199.474 335.944 221.767C336.085 225.845 338.233 229.84 339.31 233.919C339.8 235.772 340.289 237.757 340.098 239.61C339.974 240.826 338.83 242.72 337.835 242.935C334.858 243.589 335.156 245.028 336.043 247.121C337.669 250.967 339.186 254.855 340.306 258.9C329.849 247.195 327.934 231.991 322.942 218.053C323.332 217.879 323.722 217.705 324.112 217.532C327.312 225.059 330.505 232.595 333.705 240.123C334.004 240.065 334.302 240.015 334.601 239.957L334.609 239.966Z" fill="#415A16"/>
<path d="M82.4624 244.565C83.5901 242.91 84.7344 241.273 85.8289 239.602C86.8571 238.022 87.8189 236.392 88.9466 234.58C89.469 241.479 84.2949 251.48 78.5569 253.888C79.411 251.414 80.0992 249.445 80.605 247.973C79.5188 247.08 77.8521 246.385 77.8024 245.574C77.2385 236.682 76.9235 227.781 76.5752 218.88C76.5752 218.698 76.9069 218.499 77.3463 218.011C77.6283 218.756 77.8521 219.335 78.1838 220.187C78.3911 219.674 78.615 219.368 78.6399 219.045C79.5851 206.852 79.9417 194.568 81.6664 182.491C82.6365 175.683 85.6548 169.115 88.1838 162.605C89.4358 159.395 91.4673 156.326 95.5221 155.921C91.0693 157.699 89.4773 161.852 87.8272 165.732C82.8438 177.428 80.9947 189.812 80.8206 202.402C80.688 211.592 81.3098 220.799 81.4259 229.998C81.4508 232.066 80.4475 234.142 80.4392 236.218C80.4309 238.948 80.9367 241.686 81.2186 244.416C81.6415 244.466 82.0644 244.515 82.479 244.565H82.4624Z" fill="#415A16"/>
<path d="M348.514 232.049C352.505 233.483 354.048 236.196 353.141 240.189C352.693 242.158 352.163 244.102 350.869 246.079C350.463 243.398 350.057 240.718 349.659 238.03C349.178 237.964 348.697 237.906 348.224 237.84C347.295 241.57 346.118 245.268 345.538 249.048C345.189 251.34 344.816 253.656 342.246 253.035C341.101 252.762 339.617 249.652 339.982 248.271C340.902 244.747 342.818 241.479 344.252 238.079C345.397 235.358 347.055 232.661 347.412 229.816C350.388 206.224 349.227 182.88 342.279 160.007C341.135 156.244 339.36 152.678 338.282 148.956C351.69 175.402 351.649 203.643 348.523 232.033L348.514 232.049Z" fill="#415A16"/>
<path d="M364.078 299.541C361.864 299.963 359.65 300.79 357.453 300.732C346.159 300.451 334.874 299.657 323.581 299.574C308.141 299.459 292.694 299.864 277.246 299.955C263.739 300.029 250.231 299.971 236.724 299.971C236.724 299.583 236.724 299.194 236.724 298.805H364.037L364.086 299.55L364.078 299.541Z" fill="#415A16"/>
<path d="M105.257 247.311C102.985 245.789 101.235 244.614 99.1705 243.233C97.3048 246.509 95.0992 249.205 90.7294 246.459C93.2086 243.729 95.3728 240.917 99.5851 240.47C100.696 240.354 102.355 238.295 102.479 237.004C103.507 226.226 104.784 215.422 104.925 204.619C105.107 190.333 104.054 176.072 99.4109 162.315C99.7924 162.224 100.174 162.133 100.563 162.042C101.932 167.494 103.897 172.879 104.56 178.413C107.015 198.795 108.573 219.203 103.714 239.544C103.2 241.686 104.602 244.284 105.257 247.303V247.311Z" fill="#415A16"/>
<path d="M46.766 234.332C54.834 238.849 62.7444 243.274 70.7294 247.741C71.1274 243.829 71.5503 239.693 71.9732 235.565L73.7228 235.54C74.9665 241.926 76.202 248.312 77.5868 255.393C76.0279 254.682 74.5271 254.483 74.2452 253.788C72.0395 248.428 66.7576 249.048 62.5785 247.642C55.5802 245.276 48.5985 243.026 46.766 234.332Z" fill="#415A16"/>
<path d="M60.0578 261.093L61.484 264.559C61.9567 264.476 62.4376 264.393 62.9102 264.302C63.0844 260.729 63.2585 257.155 63.4409 253.391H68.5736C67.4044 257.395 66.3182 261.093 65.0412 265.444C64.8671 265.477 63.557 265.733 61.7079 266.097C63.159 270.87 64.5023 275.569 66.086 280.185C66.3596 280.987 67.6366 281.872 68.5321 281.971C71.8074 282.352 75.1822 282.84 78.3994 282.426C79.9251 282.228 81.8903 280.325 82.4458 278.762C83.7311 275.163 84.3861 271.325 85.0412 267.536C85.1987 266.651 84.3281 265.584 83.9964 264.782C83.9964 264.782 85.1075 264.691 86.202 264.592C86.3596 264.873 86.6166 265.121 86.5752 265.311C85.605 270.44 84.7261 275.585 83.5238 280.656C83.275 281.698 81.8737 283.187 80.945 283.237C76.5918 283.46 72.2054 283.386 67.8522 283.08C66.9484 283.022 65.7709 281.707 65.3646 280.714C64.1291 277.67 63.2668 274.477 62.1557 271.375C61.3016 268.984 60.1739 266.684 59.4194 264.269C59.0877 263.202 59.3613 261.945 59.3613 260.77L60.0578 261.076V261.093Z" fill="#415A16"/>
<path d="M66.4674 243.647C64.4857 241.876 61.6499 240.487 60.6714 238.27C57.1723 230.337 54.3116 222.123 51.2104 214.016L52.5952 213.478C57.6283 223.157 62.6532 232.835 67.6863 242.513C67.28 242.894 66.8737 243.266 66.4757 243.647H66.4674Z" fill="#415A16"/>
<path d="M54.0877 246.674C49.0297 252.556 44.436 257.908 39.8423 263.252C39.436 263.012 39.0214 262.763 38.6151 262.524C38.7644 257.072 41.2685 252.506 44.8091 248.362C46.9733 245.83 49.6433 244.954 54.096 246.666L54.0877 246.674Z" fill="#415A16"/>
<path d="M354.468 270.73C353.879 269.729 353.299 268.719 352.37 267.131C356.516 265.005 360.554 262.689 364.824 260.935C365.662 260.596 368.324 262.242 368.539 263.301C369.078 266.014 368.722 268.91 368.722 271.73C368.348 271.78 367.967 271.838 367.594 271.888C366.748 269.034 365.894 266.18 364.841 262.615C362.088 264.683 359.858 266.354 357.892 267.834C358.581 269.646 359.94 271.681 359.468 272.293C358.605 273.41 356.665 274.154 355.139 274.212C349.634 274.427 344.12 274.295 337.561 274.295C345.189 272.533 352.353 275.378 358.697 272.053C358.664 271.515 358.63 270.969 358.597 270.432C357.221 270.523 355.844 270.622 354.468 270.713H354.484L354.468 270.73Z" fill="#415A16"/>
<path d="M369.086 248.387C365.587 252.225 360.944 257.312 356.516 262.168C356.823 254.342 358.747 246.765 366.035 241.479C363.556 245.921 361.077 250.364 358.606 254.806C358.821 254.946 359.028 255.087 359.244 255.236C363.058 252.589 366.873 249.933 369.086 248.395V248.387Z" fill="#415A16"/>
<path d="M90.746 210.078L94.527 159.221C94.809 159.238 95.0992 159.255 95.3811 159.271C94.3695 176.245 93.3496 193.212 92.338 210.186C91.8073 210.153 91.2766 210.112 90.7377 210.078H90.746Z" fill="#415A16"/>
<path d="M354.451 270.73C350.413 270.829 346.383 270.994 342.345 270.978C341.218 270.978 340.098 270.448 338.97 270.159L338.871 270.275H344.485C344.095 265.088 343.713 260.075 343.34 255.062C343.995 254.897 344.65 254.74 345.314 254.574C346.765 258.925 348.307 263.243 349.551 267.652C349.684 268.116 348.009 269.075 347.121 269.853C349.609 270.15 352.03 270.44 354.468 270.73H354.46H354.451Z" fill="#415A16"/>
<path d="M358.929 237.765C356.549 246.749 354.12 255.922 351.757 264.856C348.63 261.068 352.42 246.219 358.929 237.765Z" fill="#415A16"/>
<path d="M92.0063 213.147C94.1705 220.385 93.5652 227.657 92.1224 234.953C91.6912 234.961 91.26 234.969 90.8372 234.986V213.354C91.2269 213.288 91.6166 213.222 92.0063 213.156V213.147Z" fill="#415A16"/>
<path d="M55.5802 247.435C59.9196 249.547 61.6195 253.022 60.6797 257.858C57.7195 256.162 54.9501 254.574 51.8821 252.812C53.3166 250.728 54.4443 249.09 55.5802 247.435Z" fill="#415A16"/>
<path d="M334.31 277.562C334.974 281.508 335.77 284.991 336.077 288.515C336.3 291.104 337.478 292.196 339.891 292.353C341.259 292.444 342.627 292.601 343.995 292.617C352.329 292.725 353.166 292.063 355.098 284.196C355.521 282.484 356.027 280.797 357.105 279.225C356.3 283.022 355.687 286.877 354.584 290.583C354.269 291.65 352.635 292.915 351.491 293.039C347.693 293.445 343.838 293.296 340.015 293.511C336.06 293.734 334.576 291.41 334.352 288.051C334.136 284.792 334.302 281.508 334.302 277.562H334.31Z" fill="#415A16"/>
<path d="M69.3197 211.096C70.8786 217.697 72.1804 223.206 73.4988 228.79C71.3429 230.105 70.0245 230.329 69.4109 227.384C68.3579 222.346 67.0726 217.374 69.328 211.096H69.3197Z" fill="#415A16"/>
<path d="M98.7973 225.961C98.9217 233.935 96.6581 240.644 89.0461 244.672C92.338 238.361 95.5718 232.165 98.7973 225.961Z" fill="#415A16"/>
<path d="M59.2287 310.7H96.1439C96.1439 310.857 96.1439 311.015 96.1357 311.18H59.0297C59.096 311.023 59.1623 310.866 59.2287 310.7Z" fill="#415A16"/>
<path d="M82.0892 239.544C83.5071 233.174 84.9167 226.796 86.3347 220.427C86.6746 220.501 87.0146 220.576 87.3463 220.65C86.7658 227.202 87.2219 233.977 83.4325 239.842C82.9847 239.742 82.5287 239.643 82.0809 239.552L82.0892 239.544Z" fill="#415A16"/>
<path d="M338.979 270.159C335.256 274.038 331.533 277.926 328.266 281.326C328.515 277.198 330.355 272.673 334.46 269.257C336.16 267.843 338.158 266.693 338.871 270.275L338.979 270.159Z" fill="#415A16"/>
<path d="M77.081 257.99C79.8588 255.84 82.6283 253.681 86.401 250.752C85.3894 254.599 86.1523 258.156 82.5868 259.744C81.0445 260.431 78.9135 259.794 77.0479 259.761C77.0561 259.173 77.0644 258.578 77.081 257.99Z" fill="#415A16"/>
<path d="M358.871 312.578H324.758C324.758 312.214 324.758 311.842 324.758 311.478C336.126 311.991 347.486 312.495 358.854 313.008C358.854 312.868 358.863 312.727 358.871 312.586V312.578Z" fill="#415A16"/>
<path d="M68.2833 260.894C69.3613 257.908 69.9832 256.162 70.6133 254.417C71.0196 254.218 71.4342 254.02 71.8405 253.813C73.1341 255.823 74.4276 257.842 75.7294 259.852C73.5321 260.158 71.3347 260.464 68.2833 260.886V260.894Z" fill="#415A16"/>
<path d="M238.747 39.9956C241.956 34.0894 245.165 28.1831 248.366 22.2768C248.855 22.5415 249.336 22.8145 249.825 23.0792C246.425 28.8945 243.034 34.718 239.634 40.5333C239.336 40.3513 239.037 40.1694 238.739 39.9956H238.747Z" fill="#415A16"/>
<path d="M363.299 257.643C365.919 256.204 368.415 254.028 371.193 253.59C372.859 253.333 374.949 255.79 376.607 257.759C371.914 254.202 367.975 255.964 364.178 259.397C363.887 258.809 363.589 258.222 363.299 257.643Z" fill="#415A16"/>
<path d="M65.5967 234.398C64.7343 230.941 63.872 227.483 63.0096 224.025C63.474 223.893 63.9466 223.761 64.411 223.628C64.2285 227.417 70.2567 229.311 67.3546 233.927L65.5884 234.398H65.5967Z" fill="#415A16"/>
<path d="M152.429 98.0493H132.321C132.321 97.8011 132.321 97.5447 132.321 97.2965H152.462C152.454 97.5447 152.437 97.8011 152.429 98.0493Z" fill="#415A16"/>
<path d="M266.699 65.5564L280.38 55.6216C280.629 55.9773 280.878 56.333 281.127 56.6887C276.483 59.9066 271.84 63.1244 267.196 66.3506C267.03 66.0859 266.865 65.8212 266.69 65.5564H266.699Z" fill="#415A16"/>
<path d="M176.218 78.7753C173.581 76.0455 170.953 73.324 168.316 70.5942C168.523 70.3956 168.739 70.1888 168.946 69.9903C171.533 72.7697 174.12 75.5492 176.707 78.3286C176.542 78.4775 176.384 78.6264 176.218 78.7753Z" fill="#415A16"/>
<path d="M205.256 47.7549C204.833 43.0563 204.402 38.3495 203.979 33.6509C204.319 33.6178 204.659 33.5848 204.999 33.5517C205.372 38.2585 205.745 42.9653 206.127 47.6722L205.264 47.7549H205.256Z" fill="#415A16"/>
<path d="M73.6233 231.71C71.9566 234.159 70.6382 236.111 69.0296 238.485C68.6897 232.951 69.5188 231.644 73.6233 231.71Z" fill="#415A16"/>
<path d="M258.208 99.5548C254.792 99.3563 251.384 99.1578 247.968 98.951C247.976 98.7193 247.984 98.4877 247.992 98.2561H258.191V99.5548H258.208Z" fill="#415A16"/>
<path d="M100.016 249.445C98.0013 250.852 95.9864 252.258 93.9632 253.664C93.6813 253.325 93.3994 252.978 93.1174 252.638C94.9997 251.067 96.8819 249.495 98.7642 247.923C99.1788 248.428 99.5934 248.941 100.016 249.445Z" fill="#415A16"/>
<path d="M159.767 267.727C157.164 267.727 154.552 267.586 151.965 267.801C151.028 267.876 149.933 268.645 149.378 269.431C149.112 269.803 149.958 270.953 149.892 272.111C148.706 270.481 147.52 268.843 146.334 267.23H159.776C159.776 267.396 159.776 267.57 159.776 267.735L159.767 267.727Z" fill="#415A16"/>
<path d="M196.848 211.592C198.341 210.525 198.855 209.839 199.427 209.797C201.583 209.632 203.83 209.276 205.903 209.706C212.644 211.112 214.004 204.561 217.992 201.93C218.515 201.583 219.112 201.343 219.676 201.054C219.9 201.393 220.132 201.732 220.356 202.063C218.772 203.146 217.188 204.23 215.298 205.521V208.838C215.613 209.135 215.928 209.442 216.243 209.739C218.15 208.151 220.057 206.555 221.608 205.256C221.691 206.588 222.055 208.598 221.832 210.55C221.74 211.361 220.389 212.676 219.634 212.659C212.495 212.461 205.364 212.031 196.857 211.601L196.848 211.592Z" fill="#415A16"/>
<path d="M202.437 205.967C203.051 205.57 203.913 205.016 204.195 204.842C204.079 202.344 203.979 200.367 203.847 197.497C205.862 199.871 207.221 201.467 209.261 203.874C207.545 203.089 206.782 202.741 204.784 201.815C206.318 204.214 207.221 205.628 208.2 207.15C206.26 206.753 204.477 206.389 202.437 205.967Z" fill="#415A16"/>
<path d="M211.699 188.042C214.734 185.477 217.777 182.913 220.812 180.357C221.011 180.597 221.218 180.828 221.417 181.068C218.424 183.69 215.43 186.321 212.437 188.943C212.188 188.645 211.948 188.348 211.699 188.05V188.042Z" fill="#415A16"/>
</g>
<defs>
<clipPath id="clip0_5_367">
<rect width="423" height="313" fill="white"/>
</clipPath>
</defs>
</svg>
